<?xml version="1.0" encoding="utf-8"?>
<!-- Generator: Adobe Illustrator 27.5.0, SVG Export Plug-In . SVG Version: 6.00 Build 0)  -->
<svg version="1.1" id="Layer_1" xmlns="http://www.w3.org/2000/svg" xmlns:xlink="http://www.w3.org/1999/xlink" x="0px" y="0px"
	 viewBox="0 0 612 229.8" style="enable-background:new 0 0 612 229.8;" xml:space="preserve">
<style type="text/css">
	.st0{fill:#85754E;}
	.st1{fill:none;stroke:#85754E;stroke-width:0.5;stroke-miterlimit:10;}
</style>
<g>
	<g>
		<g>
			<path class="st0" d="M57.5,61.8c0.7,1.7,1.4,3.3,1.9,4.9c0.2,0.5,0,1.1-0.1,1.6c-3.4,9.1-5.2,18.5-4.7,28.2
				c0.3,7.2,1.4,14.4,4.8,20.9c3.8,7.2,9.5,11.7,18,12.7c-0.8,0.4-1.6,1-2.4,1.2c-7.7,1.3-14.1-1-18.8-7.4c-3.8-5.2-5.7-11.2-7-17.4
				c-1.7-8.5-0.6-16.9,1.2-25.2c1.4-6.2,3.3-12.1,6-17.9c0.2-0.5,0.5-0.9,0.7-1.4C57.2,62,57.3,62,57.5,61.8z"/>
			<g>
				<path class="st0" d="M61.8,143.7c-0.5,0.2-1,0.4-1.5,0.5c-11.1,3.5-17.9,11.2-21.8,21.9c-2.9,8-3,16-0.2,24.1
					c4,11.3,13.2,17.3,25.1,16.3c7.2-0.6,13.9-2.7,19.6-7.5c3.5-2.9,6-6.6,8.1-10.6c5-9.4,7.8-19.5,9-30.1
					c1.4-12.7,2.2-25.5,2.5-38.3c0-0.4,0-0.7,0-1.2c-1.1-0.2-2.1-0.4-3.2-0.6c-5.1-1.2-9.7-3.2-12.6-7.8c-2.6-4-3.1-8.2-1-12.7
					c3.2-6.9,8.7-11.1,15.4-14c1.8-0.8,2.6-1.6,2.7-3.7c0.5-7.8,1.5-15.5,3.8-22.9c1.2-3.9,2.7-7.7,5.6-10.8c2.4-2.5,5.3-4,8.8-4.3
					c-2.4,1.3-4.4,3-5.8,5.3c-2.2,3.4-3.2,7.3-3.9,11.2c-1.3,7.2-1.6,14.4-1.5,21.7c0,0.1,0.1,0.3,0.1,0.5c16-3.6,31.8-3.1,47.2,3.2
					c2.4-4.8,4.3-9.6,5.7-14.7c2.3-8.8,3.1-17.7,0.7-26.5c-2.9-10.6-9.1-18.7-19.6-22.8c-6-2.3-12.2-2.5-18.5-1.8
					c-10.9,1.2-21.4,4.1-31.2,9.2c-6.3,3.3-12,7.5-17.1,12.4c-0.3,0.3-0.7,0.6-1,1c-1.4-2.2-1.3-2.5,0.4-4
					c12.1-10.2,26.1-16.1,41.5-19c6.7-1.3,13.5-1.9,20.4-1.4c6.6,0.5,12.9,2,18.7,5.3c9.1,5,13.8,13,15.7,23
					c2.4,12.4-0.2,24-5.7,35.2c-1.2,2.5-2.6,4.9-4,7.4c1,0.7,2,1.3,2.9,2c12,8.3,19.3,19.8,23.4,33.6c2.6,8.8,4,17.7,3.7,26.9
					c-0.7,18.9-7.5,35.2-21.4,48.2c-8.1,7.6-18.1,11.2-29.2,11.5c-9.6,0.2-16-4.5-19.2-13.6c-2.7-7.7-2.7-15.6-1.1-23.5
					c2.7-13.2,7.8-25.4,16.7-35.7c6.5-7.5,14.2-13.1,24.1-15.4c0.5-0.1,1-0.3,1.5-0.3c0.3,0,0.6,0.2,0.9,0.3
					c-0.3,0.2-0.5,0.6-0.8,0.7c-0.7,0.2-1.5,0.3-2.2,0.5c-9.5,2.2-17,7.7-23,15.2c-8.1,10.2-13.6,21.7-15.6,34.6
					c-1.3,8.2-1.3,16.5,1.9,24.3c3,7.5,9.7,11.3,17.8,10.6c10.8-1,18.9-6.7,25.3-15c6.5-8.3,10.2-17.9,12.4-28
					c1.9-8.8,2.9-17.8,2.3-26.8c-1-14.9-5.4-28.5-15.1-40.1c-2.1-2.5-4.7-4.7-7.2-7.2c-12.5,17.1-29,27-50,29.3c0,1.9,0,3.7,0,5.5
					c0.2,11.6-0.2,23.3-1.8,34.8c-1.2,8.8-2.9,17.6-7.2,25.6c-6.2,11.4-15.7,18.8-28.3,21.9c-6.3,1.6-12.7,2-19.2,0.7
					c-12.3-2.4-19.2-11.8-21-23.2c-1.5-10.1,1-19.5,6.4-28c4.3-6.8,10.7-11.1,18.8-12.4c0.5-0.1,1.1-0.1,1.7-0.1
					C61.7,143.5,61.7,143.6,61.8,143.7z M112.1,117c20.6-2.3,34.8-13.3,44.7-30.9c-14.8-8.1-30.2-8.1-46.1-4.8
					C111.1,93.3,111.6,105.1,112.1,117z M103.5,83.8c-1.4,0.7-2.8,1.3-4.1,2.1c-4,2.2-7.7,4.7-10.1,8.6c-3,4.8-3.6,9.9-0.8,14.8
					c3,5.3,8.4,6.6,14,7.6C102.8,105.8,103.2,94.9,103.5,83.8z"/>
			</g>
		</g>
	</g>
	<g>
		<path class="st0" d="M100.2,120.6c-0.5-0.1-0.9-0.2-1.4-0.3c-4.3-1-10.4-2.9-14.1-8.8c-3.1-4.9-3.5-9.9-1.1-15
			c2-4.4,5.1-7.9,9.1-10.9c0-0.2-0.1-0.4-0.2-0.6c-5-13-10.1-26-15-39c-1.7-4.4-3.2-8.9-4.2-13.4c-1.4-6.4,1.4-10.8,7.7-12.7
			c1.6-0.5,3.2-0.8,4.8-1.1c2.5-0.4,5-0.6,7.6-1c0-0.7,0-1.3,0-2c-21.4,0.8-42.7,1-63.9,0c-0.4,1.6,0,2.1,1.5,2.5
			c2.2,0.5,4.3,1.4,6.2,2.5c4.3,2.5,7.3,6.3,9.3,10.7c2.4,5.2,4.6,10.5,6.7,15.8c14.8,37.2,29.6,74.4,44.3,111.6
			c0-0.4,0.1-0.7,0.2-1.1C99.2,145.8,100,133.2,100.2,120.6z"/>
		<path class="st0" d="M120.9,171.4c0.5-2.6,1.2-5.1,1.9-7.6c0-0.1,0-0.1,0-0.2c-2-5.4-4.1-10.8-6.2-16.2c-0.8-2-1.5-3.9-2.3-5.9
			c-0.3,6.4-0.8,12.2-1.6,17.8c-1,7.2-2.4,15.4-5.8,23c3.8,9.7,7.6,19.3,11.4,28.9c0.3,0.8,0.8,1,1.6,1c0.8,0,1.2-0.2,1.6-1.1
			c1.2-3,2.4-6,3.5-9.1c0,0,0,0,0,0c-1.2-1.8-2.2-3.7-3-6C119.4,188.6,119.1,180.5,120.9,171.4z"/>
		<path class="st0" d="M210.6,16c-16.9,1.1-33.9,0.5-50.8,0c0,0.8,0,1.4,0,2c0.5,0,0.8,0.1,1.2,0.1c4.4,0.3,8.8,0.9,13,2.5
			c6.8,2.6,10.4,7.6,10.7,14.9c0.2,6.1-1.3,11.9-3.4,17.5c-4.1,11-8.4,21.9-12.6,32.8c-0.2,0.4-0.3,0.8-0.4,1l0.1,0
			c0.7,0.5,1.3,1,2,1.5c0.1-0.4,0.3-0.7,0.4-1.1c5-12.5,9.9-25,14.9-37.5c2.4-6,4.6-12.1,8.2-17.6c3.9-5.9,8.6-10.8,15.4-13.4
			C211.1,18.1,211.1,18.1,210.6,16z"/>
		<path class="st0" d="M151.3,129.9c-6.2,15.3-12.2,30.7-18.3,46.1c-0.9,2.2-1.7,4.3-2.7,6.8c-1.2-3-2.3-5.9-3.4-8.8
			c-1,7.6-0.5,14,1.6,19.9c8.8-22.1,17.5-44.1,26.3-66.1C153.5,128.4,152.4,129.1,151.3,129.9z"/>
		<path class="st0" d="M157.6,120.4c0.2-0.3,0.4-0.7,0.6-1.1c2.7-7.1,5.5-14.1,8.3-21.1c0.1-0.4,0.2-0.6,0.3-0.9
			c-0.6-0.7-1.2-1.3-1.9-2c-3.5,8.9-7,17.6-10.5,26.5C155.4,121.2,156.5,120.8,157.6,120.4z"/>
		<path class="st0" d="M91.2,95.7c-2.7,4.3-3,8.5-0.7,12.5c2.1,3.6,5.5,5,9.8,6l0.3-8.6c-0.1-0.1-0.1-0.3-0.1-0.4
			c-1.3-2.7-2.2-5.6-3.3-8.4c-0.7-1.7-1.4-3.5-2.1-5.3C93.6,92.7,92.3,94.1,91.2,95.7z"/>
	</g>
</g>
<g>
	<g>
		<path class="st0" d="M235.1,73.5c0-10.8,0-12.7-0.1-14.9c-0.1-2.3-0.7-3.4-3-3.9c-0.5-0.1-1.7-0.2-2.3-0.2c-0.3,0-0.5-0.1-0.5-0.4
			c0-0.4,0.3-0.6,1.1-0.6c3.1,0,7.4,0.2,7.8,0.2c1.7,0,4.3-0.2,7.5-0.2c11.3,0,13.8,6.9,13.8,10.3c0,5.7-3.2,9-6.5,12.4
			c5.1,1.6,11.9,6.5,11.9,14.5c0,7.4-5.8,15-17.6,15c-0.8,0-3-0.1-5-0.2c-2-0.1-3.9-0.2-4.2-0.2c-0.1,0-1.3,0-2.8,0.1
			c-1.4,0-3,0.1-4,0.1c-0.8,0-1.1-0.1-1.1-0.5c0-0.2,0.1-0.4,0.5-0.4c0.6,0,1.4-0.1,2.1-0.3c1.4-0.3,1.7-1.8,2-3.8
			c0.3-2.9,0.3-8.3,0.3-15V73.5z M240.6,75c0,0.5,0.1,0.6,0.5,0.8c0.4,0.1,1.7,0.3,4.2,0.3c3.9,0,4.8-0.1,6.3-1.8
			c1.4-1.7,2.5-4.1,2.5-7c0-5.7-2.5-11.9-9.3-11.9c-0.8,0-2.2,0.1-3.3,0.3c-0.6,0.1-0.8,0.3-0.8,0.8V75z M240.6,82.3
			c0,5.3,0,13.9,0.1,14.9c0.2,3.4,0.2,4.3,2.3,5.4c1.9,0.9,4.8,1,6.1,1c3.7,0,9.7-2,9.7-9.8c0-4.1-1.4-10.1-6.7-13.8
			c-2.3-1.6-4.1-1.8-5.7-2c-0.9-0.1-4.3-0.1-5.4-0.1c-0.3,0-0.4,0.1-0.4,0.5V82.3z"/>
		<path class="st0" d="M282,73.5c0-10.8,0-12.7-0.1-14.9c-0.1-2.3-0.7-3.4-3-3.9c-0.5-0.1-1.7-0.2-2.3-0.2c-0.3,0-0.5-0.1-0.5-0.4
			c0-0.4,0.3-0.6,1.1-0.6c1.6,0,3.4,0,5,0.1l2.8,0.1c0.5,0,14.2,0,15.8-0.1c1.3-0.1,2.4-0.2,3-0.3c0.3-0.1,0.6-0.3,1-0.3
			c0.2,0,0.3,0.3,0.3,0.6c0,0.5-0.3,1.3-0.6,3.2c-0.1,0.7-0.2,3.7-0.3,4.5c-0.1,0.3-0.2,0.8-0.5,0.8c-0.4,0-0.6-0.3-0.6-0.9
			c0-0.5-0.1-1.7-0.4-2.5c-0.5-1.1-1.2-1.9-4.9-2.3c-1.2-0.1-8.7-0.2-9.4-0.2c-0.3,0-0.4,0.2-0.4,0.7v19c0,0.5,0.1,0.7,0.4,0.7
			c0.9,0,9.4,0,11-0.1c1.7-0.1,2.6-0.3,3.2-1c0.5-0.6,0.8-0.9,1-0.9c0.2,0,0.3,0.1,0.3,0.6c0,0.4-0.3,1.6-0.6,3.9
			c-0.1,1.4-0.3,3.9-0.3,4.4c0,0.6,0,1.3-0.5,1.3c-0.3,0-0.5-0.3-0.5-0.6c0-0.7,0-1.4-0.3-2.3c-0.3-1-0.9-2.1-3.6-2.4
			c-1.9-0.2-8.7-0.3-9.9-0.3c-0.3,0-0.5,0.2-0.5,0.5v6.1c0,2.3-0.1,10.3,0,11.8c0.2,4.8,1.2,5.6,8,5.6c1.8,0,4.8,0,6.6-0.8
			c1.8-0.8,2.6-2.1,3.1-5c0.1-0.8,0.3-1,0.6-1c0.4,0,0.4,0.6,0.4,1c0,0.6-0.5,5.2-0.9,6.7c-0.5,1.8-1,1.8-3.7,1.8
			c-5.2,0-9-0.1-11.6-0.2c-2.7-0.1-4.3-0.2-5.4-0.2c-0.1,0-1.3,0-2.8,0.1c-1.4,0-3,0.1-4,0.1c-0.8,0-1.1-0.1-1.1-0.5
			c0-0.2,0.1-0.4,0.5-0.4c0.6,0,1.4-0.1,2.1-0.3c1.4-0.3,1.7-1.8,2-3.8c0.3-2.9,0.3-8.3,0.3-15V73.5z"/>
		<path class="st0" d="M330.4,85.8c0,10.1,0.3,14.5,1.5,15.8c1.1,1.1,2.9,1.6,8.3,1.6c3.7,0,6.7-0.1,8.3-2.1
			c0.9-1.1,1.6-2.8,1.8-4.1c0.1-0.5,0.2-0.9,0.6-0.9c0.3,0,0.4,0.3,0.4,1c0,0.8-0.5,4.9-1,6.9c-0.5,1.6-0.7,1.9-4.3,1.9
			c-5,0-8.5-0.1-11.4-0.2c-2.9-0.1-5-0.2-7-0.2c-0.3,0-1.4,0.1-2.8,0.1c-1.4,0.1-2.9,0.1-3.9,0.1c-0.8,0-1.1-0.1-1.1-0.5
			c0-0.2,0.1-0.4,0.5-0.4c0.6,0,1.4-0.1,2.1-0.3c1.4-0.3,1.7-1.8,2-3.8c0.3-2.9,0.3-8.3,0.3-15V73.5c0-10.8,0-12.7-0.1-14.9
			c-0.1-2.3-0.7-3.4-3-3.9c-0.5-0.1-1.7-0.2-2.3-0.2c-0.3,0-0.5-0.1-0.5-0.4c0-0.4,0.3-0.6,1.1-0.6c3.1,0,7.4,0.2,7.8,0.2
			c0.3,0,5.4-0.2,7.4-0.2c0.8,0,1.1,0.1,1.1,0.6c0,0.3-0.3,0.4-0.5,0.4c-0.5,0-1.4,0.1-2.3,0.2c-2,0.3-2.5,1.5-2.7,3.9
			c-0.1,2.2-0.1,4.1-0.1,14.9V85.8z"/>
		<path class="st0" d="M371.7,85.8c0,10.1,0.3,14.5,1.5,15.8c1.1,1.1,2.9,1.6,8.3,1.6c3.7,0,6.7-0.1,8.3-2.1
			c0.9-1.1,1.6-2.8,1.8-4.1c0.1-0.5,0.2-0.9,0.6-0.9c0.3,0,0.4,0.3,0.4,1c0,0.8-0.5,4.9-1,6.9c-0.5,1.6-0.7,1.9-4.3,1.9
			c-5,0-8.5-0.1-11.4-0.2c-2.9-0.1-5-0.2-7-0.2c-0.3,0-1.4,0.1-2.8,0.1c-1.4,0.1-2.9,0.1-3.9,0.1c-0.8,0-1.1-0.1-1.1-0.5
			c0-0.2,0.1-0.4,0.5-0.4c0.6,0,1.4-0.1,2.1-0.3c1.4-0.3,1.7-1.8,2-3.8c0.3-2.9,0.3-8.3,0.3-15V73.5c0-10.8,0-12.7-0.1-14.9
			c-0.1-2.3-0.7-3.4-3-3.9c-0.5-0.1-1.7-0.2-2.3-0.2c-0.3,0-0.5-0.1-0.5-0.4c0-0.4,0.3-0.6,1.1-0.6c3.1,0,7.4,0.2,7.8,0.2
			c0.3,0,5.4-0.2,7.4-0.2c0.8,0,1.1,0.1,1.1,0.6c0,0.3-0.3,0.4-0.5,0.4c-0.5,0-1.4,0.1-2.3,0.2c-2,0.3-2.5,1.5-2.7,3.9
			c-0.1,2.2-0.1,4.1-0.1,14.9V85.8z"/>
		<path class="st0" d="M407.3,73.5c0-10.8,0-12.7-0.1-14.9c-0.1-2.3-0.7-3.4-3-3.9c-0.5-0.1-1.7-0.2-2.3-0.2c-0.3,0-0.5-0.1-0.5-0.4
			c0-0.4,0.3-0.6,1.1-0.6c1.6,0,3.4,0,5,0.1l2.8,0.1c0.5,0,14.2,0,15.8-0.1c1.3-0.1,2.4-0.2,3-0.3c0.3-0.1,0.6-0.3,1-0.3
			c0.2,0,0.3,0.3,0.3,0.6c0,0.5-0.3,1.3-0.6,3.2c-0.1,0.7-0.2,3.7-0.3,4.5c-0.1,0.3-0.2,0.8-0.5,0.8c-0.4,0-0.6-0.3-0.6-0.9
			c0-0.5-0.1-1.7-0.4-2.5c-0.5-1.1-1.2-1.9-4.9-2.3c-1.2-0.1-8.7-0.2-9.4-0.2c-0.3,0-0.4,0.2-0.4,0.7v19c0,0.5,0.1,0.7,0.4,0.7
			c0.9,0,9.4,0,11-0.1c1.7-0.1,2.6-0.3,3.2-1c0.5-0.6,0.8-0.9,1-0.9c0.2,0,0.3,0.1,0.3,0.6c0,0.4-0.3,1.6-0.6,3.9
			c-0.1,1.4-0.3,3.9-0.3,4.4c0,0.6,0,1.3-0.5,1.3c-0.3,0-0.5-0.3-0.5-0.6c0-0.7,0-1.4-0.3-2.3c-0.3-1-0.9-2.1-3.6-2.4
			c-1.9-0.2-8.7-0.3-9.9-0.3c-0.3,0-0.5,0.2-0.5,0.5v6.1c0,2.3-0.1,10.3,0,11.8c0.2,4.8,1.2,5.6,8,5.6c1.8,0,4.8,0,6.6-0.8
			c1.8-0.8,2.6-2.1,3.1-5c0.1-0.8,0.3-1,0.6-1c0.4,0,0.4,0.6,0.4,1c0,0.6-0.5,5.2-0.9,6.7c-0.5,1.8-1,1.8-3.7,1.8
			c-5.2,0-9-0.1-11.6-0.2c-2.7-0.1-4.3-0.2-5.4-0.2c-0.1,0-1.3,0-2.8,0.1c-1.4,0-3,0.1-4,0.1c-0.8,0-1.1-0.1-1.1-0.5
			c0-0.2,0.1-0.4,0.5-0.4c0.6,0,1.4-0.1,2.1-0.3c1.4-0.3,1.7-1.8,2-3.8c0.3-2.9,0.3-8.3,0.3-15V73.5z"/>
		<path class="st0" d="M487.8,97.2c4-9.2,13.2-33.3,14.7-38.2c0.3-1,0.6-2,0.6-2.6c0-0.6-0.2-1.2-0.9-1.6c-0.8-0.3-1.9-0.3-2.6-0.3
			c-0.4,0-0.8-0.1-0.8-0.4c0-0.4,0.4-0.6,1.5-0.6c2.8,0,5.9,0.2,6.8,0.2c0.4,0,3.4-0.2,5.4-0.2c0.8,0,1.2,0.1,1.2,0.5
			c0,0.3-0.3,0.5-0.8,0.5c-0.5,0-2,0-3.3,0.8c-0.9,0.6-1.9,1.8-3.8,6.5c-0.8,1.9-4.2,10.2-7.7,18.7c-4.2,10.1-7.3,17.5-8.9,20.9
			c-1.9,4.1-2.2,5.2-2.9,5.2c-0.8,0-1.2-1-2.5-4.3L467,60c-1.5-3.9-2.5-4.6-5-5.3c-1-0.3-2.2-0.3-2.6-0.3c-0.4,0-0.6-0.2-0.6-0.5
			c0-0.4,0.7-0.5,1.8-0.5c3.3,0,7.2,0.2,8.1,0.2c0.7,0,3.8-0.2,6.4-0.2c1.2,0,1.9,0.1,1.9,0.5c0,0.3-0.2,0.5-0.7,0.5
			c-0.8,0-2,0.1-2.6,0.3c-0.8,0.3-0.9,0.9-0.9,1.4c0,0.9,0.8,3,1.9,5.7L487.8,97.2z"/>
		<path class="st0" d="M530.4,85.6c0,6.6,0,12.1,0.3,15c0.2,2,0.6,3.5,2.7,3.8c1,0.1,2.5,0.3,3.1,0.3c0.4,0,0.5,0.2,0.5,0.4
			c0,0.3-0.3,0.5-1.1,0.5c-3.8,0-8.1-0.2-8.5-0.2s-4.7,0.2-6.8,0.2c-0.8,0-1.1-0.1-1.1-0.5c0-0.2,0.1-0.4,0.5-0.4
			c0.6,0,1.4-0.1,2.1-0.3c1.4-0.3,1.7-1.8,2-3.8c0.3-2.9,0.3-8.3,0.3-15V73.5c0-10.8,0-12.7-0.1-14.9c-0.1-2.3-0.8-3.5-2.3-3.9
			c-0.8-0.2-1.7-0.3-2.1-0.3c-0.3,0-0.6-0.1-0.6-0.4c0-0.4,0.3-0.6,1.1-0.6c2.3,0,6.6,0.2,7,0.2s4.7-0.2,6.8-0.2
			c0.8,0,1.1,0.1,1.1,0.6c0,0.3-0.3,0.4-0.6,0.4c-0.5,0-0.9,0.1-1.7,0.2c-1.9,0.3-2.4,1.5-2.5,3.9c-0.1,2.2-0.1,4.1-0.1,14.9V85.6z"
			/>
		<path class="st0" d="M555.5,73.5c0-10.8,0-12.7-0.1-14.9c-0.1-2.3-0.7-3.4-3-3.9c-0.5-0.1-1.7-0.2-2.3-0.2c-0.3,0-0.5-0.1-0.5-0.4
			c0-0.4,0.3-0.6,1.1-0.6c1.6,0,3.4,0,5,0.1l2.8,0.1c0.5,0,14.2,0,15.8-0.1c1.3-0.1,2.4-0.2,3-0.3c0.3-0.1,0.6-0.3,1-0.3
			c0.2,0,0.3,0.3,0.3,0.6c0,0.5-0.3,1.3-0.6,3.2c-0.1,0.7-0.2,3.7-0.3,4.5c-0.1,0.3-0.2,0.8-0.5,0.8c-0.4,0-0.6-0.3-0.6-0.9
			c0-0.5-0.1-1.7-0.4-2.5c-0.5-1.1-1.2-1.9-4.9-2.3c-1.2-0.1-8.7-0.2-9.4-0.2c-0.3,0-0.4,0.2-0.4,0.7v19c0,0.5,0.1,0.7,0.4,0.7
			c0.9,0,9.4,0,11-0.1c1.7-0.1,2.6-0.3,3.2-1c0.5-0.6,0.8-0.9,1-0.9c0.2,0,0.3,0.1,0.3,0.6c0,0.4-0.3,1.6-0.6,3.9
			c-0.1,1.4-0.3,3.9-0.3,4.4c0,0.6,0,1.3-0.5,1.3c-0.3,0-0.5-0.3-0.5-0.6c0-0.7,0-1.4-0.3-2.3c-0.3-1-0.9-2.1-3.6-2.4
			c-1.9-0.2-8.7-0.3-9.9-0.3c-0.3,0-0.5,0.2-0.5,0.5v6.1c0,2.3-0.1,10.3,0,11.8c0.2,4.8,1.2,5.6,8,5.6c1.8,0,4.8,0,6.6-0.8
			c1.8-0.8,2.6-2.1,3.1-5c0.1-0.8,0.3-1,0.6-1c0.4,0,0.4,0.6,0.4,1c0,0.6-0.5,5.2-0.9,6.7c-0.5,1.8-1,1.8-3.7,1.8
			c-5.2,0-9-0.1-11.6-0.2c-2.7-0.1-4.3-0.2-5.4-0.2c-0.1,0-1.3,0-2.8,0.1c-1.4,0-3,0.1-4,0.1c-0.8,0-1.1-0.1-1.1-0.5
			c0-0.2,0.1-0.4,0.5-0.4c0.6,0,1.4-0.1,2.1-0.3c1.4-0.3,1.7-1.8,2-3.8c0.3-2.9,0.3-8.3,0.3-15V73.5z"/>
		<path class="st0" d="M232.2,140.2h3.2v15.1h19.1v-15.1h3.2v34.2h-3.2v-16.2h-19.1v16.2h-3.2V140.2z"/>
		<path class="st0" d="M270.9,157.3c0-2.6,0.4-5,1.3-7.2s2.1-4.1,3.6-5.7c1.5-1.6,3.4-2.8,5.6-3.7c2.2-0.9,4.6-1.4,7.2-1.4
			s5,0.5,7.2,1.4c2.2,0.9,4,2.1,5.6,3.7c1.5,1.6,2.8,3.5,3.6,5.7c0.9,2.2,1.3,4.6,1.3,7.2c0,2.6-0.4,5-1.3,7.2
			c-0.9,2.2-2.1,4.1-3.6,5.7c-1.5,1.6-3.4,2.8-5.6,3.7c-2.2,0.9-4.6,1.3-7.2,1.3s-5-0.4-7.2-1.3s-4-2.1-5.6-3.7
			c-1.5-1.6-2.8-3.5-3.6-5.7C271.4,162.3,270.9,159.9,270.9,157.3z M274.1,157.3c0,2.1,0.3,4.1,1,5.9c0.7,1.8,1.6,3.4,2.9,4.8
			c1.3,1.4,2.8,2.4,4.6,3.2c1.8,0.8,3.8,1.2,6,1.2c2.2,0,4.2-0.4,6-1.2c1.8-0.8,3.3-1.8,4.6-3.2c1.3-1.4,2.2-2.9,2.9-4.8
			c0.7-1.8,1-3.8,1-5.9c0-2.1-0.3-4.1-1-5.9c-0.7-1.8-1.6-3.4-2.9-4.8c-1.3-1.4-2.8-2.4-4.6-3.2c-1.8-0.8-3.8-1.2-6-1.2
			c-2.2,0-4.2,0.4-6,1.2c-1.8,0.8-3.3,1.8-4.6,3.2c-1.3,1.4-2.2,2.9-2.9,4.8C274.5,153.2,274.1,155.1,274.1,157.3z"/>
		<path class="st0" d="M320.5,168c0.8,1.4,1.9,2.5,3.3,3.2c1.3,0.7,2.9,1.1,4.6,1.1c1.1,0,2.1-0.2,3-0.5s1.7-0.8,2.4-1.3
			c0.7-0.6,1.2-1.3,1.6-2.1c0.4-0.8,0.6-1.8,0.6-2.8c0-1.2-0.2-2.2-0.7-2.9c-0.5-0.8-1.2-1.4-2-1.9c-0.8-0.5-1.8-0.9-2.8-1.3
			c-1-0.4-2.1-0.7-3.2-1.1c-1.1-0.4-2.2-0.8-3.2-1.2c-1-0.5-2-1-2.8-1.8c-0.8-0.7-1.5-1.6-2-2.7c-0.5-1.1-0.7-2.4-0.7-4.1
			c0-1.5,0.3-2.9,0.9-4c0.6-1.2,1.4-2.2,2.4-2.9c1-0.8,2.2-1.4,3.5-1.8c1.3-0.4,2.7-0.6,4.1-0.6c1.9,0,3.6,0.3,5.2,1
			c1.6,0.7,3,1.8,4.1,3.3l-2.8,2c-0.8-1.1-1.7-2-2.8-2.5c-1.1-0.6-2.4-0.8-3.8-0.8c-1,0-2,0.1-2.9,0.4s-1.7,0.7-2.4,1.2
			c-0.7,0.5-1.2,1.2-1.7,2c-0.4,0.8-0.6,1.8-0.6,2.8c0,1.7,0.4,3,1.3,3.9c0.9,0.9,2,1.6,3.3,2.2c1.3,0.5,2.7,1,4.2,1.4
			c1.5,0.4,2.9,0.9,4.2,1.6c1.3,0.7,2.4,1.6,3.3,2.8c0.9,1.2,1.3,2.9,1.3,5c0,1.5-0.3,2.9-0.9,4.1c-0.6,1.2-1.4,2.2-2.3,3
			c-1,0.8-2.1,1.4-3.4,1.9c-1.3,0.4-2.6,0.6-4,0.6c-2.3,0-4.3-0.4-6.2-1.2c-1.9-0.8-3.5-2.1-4.9-4L320.5,168z"/>
		<path class="st0" d="M352.5,140.2h9.8c1.2,0,2.4,0.1,3.7,0.4s2.5,0.7,3.6,1.4s2,1.6,2.7,2.8c0.7,1.2,1,2.6,1,4.4
			c0,1.5-0.3,2.9-0.8,4c-0.6,1.1-1.3,2.1-2.3,2.8c-0.9,0.7-2,1.3-3.3,1.6c-1.2,0.4-2.5,0.5-3.9,0.5h-7.4v16.2h-3.2V140.2z
			 M355.7,155.2h7.2c0.9,0,1.8-0.1,2.7-0.3c0.9-0.2,1.6-0.5,2.3-1c0.7-0.5,1.2-1.1,1.6-1.9c0.4-0.8,0.6-1.7,0.6-2.8
			c0-1.1-0.2-2-0.7-2.8c-0.4-0.8-1-1.4-1.7-1.9c-0.7-0.5-1.5-0.9-2.4-1.1c-0.9-0.2-1.8-0.3-2.7-0.3h-7V155.2z"/>
		<path class="st0" d="M386.4,140.2h3.2v34.2h-3.2V140.2z"/>
		<path class="st0" d="M412.6,143.1h-11.7v-2.9h26.5v2.9h-11.7v31.3h-3.2V143.1z"/>
		<path class="st0" d="M446.1,140.2h3.3l14.4,34.2h-3.6l-3.7-9.1h-18.1l-3.9,9.1h-3.3L446.1,140.2z M447.6,143.7l-8,18.7h15.7
			L447.6,143.7z"/>
		<path class="st0" d="M474.8,140.2h3.2v31.3h15.9v2.9h-19.1V140.2z"/>
		<path class="st0" d="M505,140.2h3.2v34.2H505V140.2z"/>
		<path class="st0" d="M531.3,143.1h-11.7v-2.9h26.5v2.9h-11.7v31.3h-3.2V143.1z"/>
		<path class="st0" d="M565.1,159.6l-12.5-19.5h3.8l10.3,16.2l10.6-16.2h3.6l-12.5,19.5v14.7h-3.2V159.6z"/>
	</g>
	<line class="st1" x1="229.1" y1="123.8" x2="580" y2="123.8"/>
</g>
</svg>
