<?xml version="1.0" standalone="no"?>
<!DOCTYPE svg PUBLIC "-//W3C//DTD SVG 20010904//EN"
 "http://www.w3.org/TR/2001/REC-SVG-20010904/DTD/svg10.dtd">
<svg version="1.0" xmlns="http://www.w3.org/2000/svg"
 width="85.000000pt" height="85.000000pt" viewBox="0 0 85.000000 85.000000"
 preserveAspectRatio="xMidYMid meet">
<metadata>
Created by potrace 1.14, written by Peter Selinger 2001-2017
</metadata>
<g transform="translate(0.000000,85.000000) scale(0.100000,-0.100000)"
fill="#000000" stroke="none">
<path d="M70 799 c0 -3 11 -11 24 -19 24 -12 76 -111 76 -143 0 -9 -5 -28 -12
-44 -6 -15 -10 -32 -9 -37 1 -4 -2 -13 -6 -20 -20 -28 3 -130 36 -161 20 -17
50 -26 64 -18 5 3 -2 10 -14 17 -51 25 -76 116 -54 191 l13 40 11 -28 c6 -16
11 -31 11 -33 0 -3 9 -24 19 -47 11 -24 31 -72 44 -107 13 -36 34 -87 46 -113
17 -38 20 -52 10 -63 -6 -8 -9 -14 -6 -14 3 0 -1 -17 -10 -37 -25 -60 -68 -92
-115 -84 -5 0 -8 -3 -8 -8 0 -13 60 -7 90 8 14 7 39 29 56 48 l31 36 17 -51
c18 -53 46 -89 46 -59 0 21 18 31 33 19 52 -43 165 7 210 92 26 51 30 67 30
136 0 90 -25 154 -80 207 -20 20 -30 34 -21 31 13 -5 24 14 57 95 31 75 51
110 76 132 19 17 35 32 35 35 0 3 -43 5 -95 5 -52 0 -95 -3 -95 -7 0 -5 9 -8
20 -8 12 0 32 -11 45 -24 27 -27 27 -57 2 -116 l-15 -35 -1 41 c-2 98 -51 146
-152 149 -32 2 -61 -1 -64 -5 -2 -3 17 -6 43 -4 26 1 49 -1 52 -5 3 -3 14 -11
25 -17 50 -28 70 -113 45 -190 -10 -28 -16 -33 -36 -30 -13 3 -29 8 -36 12 -9
6 -9 3 1 -9 7 -9 20 -17 27 -17 8 0 14 -6 14 -13 0 -18 -70 -88 -81 -81 -5 3
-9 0 -9 -5 0 -6 -7 -11 -15 -11 -8 0 -15 -4 -15 -10 0 -6 9 -6 26 0 46 18 68
32 101 68 18 19 33 30 33 24 0 -17 -44 -127 -52 -130 -4 -2 -8 -9 -8 -15 0
-27 -66 -187 -77 -187 -7 0 -13 9 -13 19 0 11 -5 32 -12 48 -6 15 -12 31 -12
35 -1 4 -7 13 -13 20 -20 19 -16 95 5 108 16 11 16 11 0 6 -15 -5 -18 2 -19
42 -3 141 1 196 16 218 8 13 12 24 8 24 -13 -1 -38 -24 -41 -40 -5 -18 -10
-44 -18 -87 -6 -30 -28 -51 -38 -35 -2 4 -19 43 -36 87 l-32 80 29 22 c15 13
47 30 71 39 38 15 56 34 32 34 -5 0 -10 -4 -10 -10 0 -5 -8 -10 -17 -10 -10 0
-36 -11 -58 -25 -49 -30 -55 -30 -55 -5 0 20 52 55 64 43 3 -4 6 -2 6 3 0 6
-48 10 -120 10 -66 -1 -120 -3 -120 -7z m279 -306 l-1 -38 -13 30 c-13 30 -11
45 6 45 5 0 9 -17 8 -37z m289 -52 c8 -20 17 -43 20 -51 6 -23 6 -111 0 -146
-21 -115 -106 -194 -179 -164 -30 13 -36 29 -19 58 5 9 28 64 51 122 22 58 46
119 53 135 7 17 19 45 26 62 14 38 26 34 48 -16z"/>
<path d="M430 559 c0 -5 5 -7 10 -4 6 3 10 8 10 11 0 2 -4 4 -10 4 -5 0 -10
-5 -10 -11z"/>
<path d="M460 566 c0 -2 7 -7 16 -10 8 -3 12 -2 9 4 -6 10 -25 14 -25 6z"/>
<path d="M472 320 c-7 -11 -9 -20 -4 -20 4 0 13 9 20 20 7 11 9 20 4 20 -4 0
-13 -9 -20 -20z"/>
<path d="M843 280 c0 -36 2 -50 4 -32 2 17 2 47 0 65 -2 17 -4 3 -4 -33z"/>
<path d="M132 289 c-12 -11 -25 -31 -28 -44 -3 -14 -10 -23 -14 -20 -6 4 -7
-13 0 -96 0 -11 49 -59 59 -59 5 0 -4 14 -21 30 -28 29 -30 35 -26 87 4 47 10
61 36 84 17 16 28 30 23 33 -4 3 -18 -4 -29 -15z"/>
<path d="M443 255 c-3 -9 -3 -18 -1 -21 3 -3 8 4 11 16 6 23 -1 27 -10 5z"/>
</g>
</svg>
