<?xml version="1.0" encoding="utf-8"?>
<!-- Generator: Adobe Illustrator 27.7.0, SVG Export Plug-In . SVG Version: 6.00 Build 0)  -->
<svg version="1.1" id="layer" xmlns="http://www.w3.org/2000/svg" xmlns:xlink="http://www.w3.org/1999/xlink" x="0px" y="0px"
	 viewBox="0 0 205 190" style="enable-background:new 0 0 205 190;" xml:space="preserve">
<style type="text/css">
	.st0{fill:#FFFFFF;}
</style>
<path class="st0" d="M33.4,12.1H21.5v0.3C32.4,16.7,37.8,25,42,44.3l29.4,135.6H78L48.5,43.2C43.4,19.7,38.1,15.4,33.4,12.1z
	 M55.7,12.1H44.6v0.3c5,6,6.4,13.4,10.4,29.7l29.8,137.8h6.6L61.6,41.6C57.3,23.8,56.7,18.9,55.7,12.1z M96,170.3l4.4-9.2L75.6,44.2
	C71.2,26,72.2,17.7,74,12.1h-9.6c-0.1,7.4,0.2,13.5,3.8,29.1L96,170.3z M104.9,151.8l4.5-9.3L89.5,46.3c-3.7-18.7-2.1-28.4,4.1-33.9
	V12H82.8c-3.3,6.9-4.3,13.9-0.5,32.4L104.9,151.8z M113.8,133.2l4.5-9.4l-15.1-77C99,25.1,104,15.7,121.1,12.4v-0.3h-15.8
	c-4.6,2.2-14.2,9.1-8.8,34.8L113.8,133.2z M143.4,71.8l0.4,0.3c10.6-35.1,13.9-50.6,4.6-60.1h-13.2v0.3
	C150,17.6,153.3,32.6,143.4,71.8z M144.3,72.4l0.4,0.3c16.6-39.3,20.9-50.1,27.8-60.4V12H159v0.4C160.4,28.1,155,42.6,144.3,72.4z
	 M185.2,12.1c-14,8.2-22.4,23.4-40,60.9l0.4,0.3c20.2-37.9,31.8-53.1,57.9-60.9v-0.3C203.5,12.1,185.2,12.1,185.2,12.1z"/>
</svg>
