<?xml version="1.0" encoding="UTF-8"?>
<svg id="Layer_2" data-name="Layer 2" xmlns="http://www.w3.org/2000/svg" viewBox="0 0 484.95 144">
  <defs>
    <style>
      .cls-1 {
        fill: rgba(255, 255, 255, .3);
      }

      .cls-1, .cls-2 {
        stroke-width: 0px;
      }

      .cls-2 {
        fill: #fff;
      }
    </style>
  </defs>
  <g id="Layer_1-2" data-name="Layer 1">
    <g>
      <path class="cls-1" d="m93.01,143.41c0-4.35,0-12.07,0-16.23,0-7.6,0-13.09-4.06-17.44-3.75-4.02-10.71-6.72-17.31-6.72-3.95,0-7.37.96-9.65,2.71-3.42,2.63-3.56,8.14-3.56,21.45,0,3.7-.12,11.05-.12,15.47l34.68.77Z"/>
      <path class="cls-1" d="m88.96,34.35c-3.75-4.02-10.71-6.72-17.31-6.72-3.95,0-7.37.96-9.64,2.71-3.42,2.63-3.56,8.14-3.55,21.45,0,13.31.14,18.82,3.56,21.45,2.27,1.75,5.69,2.71,9.64,2.71,6.61,0,13.56-2.7,17.31-6.72,4.06-4.35,4.06-9.84,4.06-17.44s0-13.09-4.06-17.44Z"/>
      <path class="cls-2" d="m159.59,83.79c1.45-.56,2.83-1.28,4.1-2.12,1.79-1.2,3.36-2.62,4.65-4.24,1.3-1.63,2.32-3.48,3.03-5.51.71-2.03,1.07-4.22,1.07-6.53,0-2.79-.46-5.41-1.36-7.8-.92-2.43-2.32-4.55-4.17-6.3-1.83-1.74-4.13-3.11-6.83-4.07-2.67-.95-5.79-1.44-9.29-1.44h-19.17c-.83,0-1.5.67-1.5,1.5v69.38c0,.83.67,1.5,1.5,1.5h9.33c.83,0,1.5-.67,1.5-1.5v-31.14h4.16l18.83,31.9c.27.46.76.74,1.29.74h10.83c.54,0,1.04-.29,1.31-.76s.26-1.05-.02-1.51l-19.25-32.1Zm-17.15-30.67h6.7c1.48,0,2.85.3,4.08.9,1.24.61,2.32,1.46,3.21,2.54.91,1.1,1.63,2.44,2.15,3.98.52,1.56.79,3.31.79,5.21,0,2.06-.33,3.95-.99,5.6-.65,1.64-1.57,3.04-2.71,4.18-1.14,1.14-2.52,2.02-4.1,2.62-1.6.61-3.37.93-5.27.93h-3.84v-25.95Z"/>
      <path class="cls-2" d="m218.13,68.76c-2.14-2.53-4.71-4.55-7.65-6-2.96-1.46-6.22-2.21-9.69-2.21s-6.81.82-9.79,2.44c-2.93,1.6-5.5,3.79-7.64,6.52-2.11,2.7-3.78,5.9-4.96,9.51-1.17,3.59-1.76,7.48-1.76,11.57s.59,7.62,1.77,11.06c1.18,3.45,2.85,6.53,4.97,9.13,2.14,2.63,4.71,4.73,7.65,6.25,2.97,1.53,6.25,2.31,9.76,2.31s6.78-.85,9.76-2.54c2.93-1.66,5.5-3.92,7.63-6.73,2.11-2.78,3.77-6.08,4.95-9.8,1.17-3.7,1.76-7.71,1.76-11.91,0-3.82-.6-7.45-1.77-10.78-1.18-3.34-2.86-6.31-4.98-8.82Zm-12.05,42.29c-1.13.87-2.34,1.3-3.7,1.3-1.98,0-3.7-.61-5.27-1.87-1.65-1.32-3.07-3.17-4.24-5.5-1.2-2.4-2.12-5.28-2.75-8.55-.64-3.31-.96-6.91-.96-10.7,0-2.56.29-4.99.87-7.25.57-2.24,1.35-4.22,2.31-5.89.93-1.62,1.99-2.9,3.16-3.81,1.07-.83,2.12-1.24,3.23-1.24,2.47,0,4.48.61,6.15,1.87,1.72,1.29,3.13,3.1,4.21,5.39,1.12,2.38,1.95,5.23,2.45,8.47.52,3.31.78,6.9.78,10.67,0,2.57-.27,5.03-.8,7.3-.53,2.25-1.27,4.25-2.22,5.94-.91,1.63-1.99,2.94-3.22,3.88Z"/>
      <path class="cls-2" d="m259.31,64.9c-1.36-1.39-3.14-2.48-5.29-3.24-2.09-.74-4.66-1.11-7.62-1.11-2.45,0-4.82.35-7.05,1.03-2.24.69-4.23,1.65-5.93,2.84-1.74,1.23-3.15,2.72-4.17,4.44-1.06,1.77-1.6,3.7-1.6,5.72s.51,3.9,1.51,5.34c1.1,1.59,2.64,2.43,4.44,2.43,1.16,0,2.16-.29,2.96-.87.76-.54,1.35-1.27,1.77-2.16.37-.8.64-1.71.78-2.71.13-.93.2-1.91.2-2.91,0-.91.09-1.81.25-2.67.15-.75.43-1.44.82-2.03.38-.56.89-1,1.58-1.35.69-.36,1.64-.54,2.83-.54,1.06,0,2.02.18,2.84.55.77.34,1.41.9,1.98,1.71.61.87,1.09,2.06,1.44,3.53.36,1.54.55,3.49.55,5.78v2.25c-1.59.53-3.21,1.07-4.84,1.63-2.04.7-4.07,1.52-6.01,2.44-1.97.93-3.84,1.99-5.57,3.16-1.77,1.2-3.35,2.6-4.7,4.16-1.37,1.58-2.47,3.39-3.26,5.37-.8,2.01-1.21,4.28-1.21,6.77,0,2.02.28,3.94.84,5.72.57,1.81,1.39,3.4,2.43,4.73,1.07,1.36,2.4,2.45,3.95,3.23,1.56.79,3.33,1.19,5.24,1.19s3.78-.3,5.32-.89c1.49-.57,2.87-1.32,4.1-2.21,1.19-.87,2.31-1.84,3.33-2.89.12-.13.25-.26.38-.39v3.71c0,.83.67,1.5,1.5,1.5h8.53c.83,0,1.5-.67,1.5-1.5v-40.37c0-2.29-.29-4.4-.86-6.29-.6-1.98-1.6-3.7-2.96-5.1Zm-14.15,44.55c-.69.25-1.44.38-2.23.38-.62,0-1.21-.18-1.8-.56-.67-.42-1.27-1.01-1.8-1.73-.55-.75-1-1.65-1.34-2.67-.34-1.01-.51-2.09-.51-3.22,0-1.59.46-3.05,1.39-4.48,1-1.52,2.3-2.94,3.86-4.2,1.61-1.3,3.39-2.48,5.3-3.51,1.21-.65,2.4-1.23,3.56-1.75v17.08c-.67.62-1.33,1.22-1.98,1.79-.75.67-1.51,1.25-2.26,1.74-.72.46-1.46.84-2.2,1.11Z"/>
      <path class="cls-2" d="m309.89,34.3h-2.48c-.23,0-.46.05-.67.16l-5.95,2.99c-.51.25-.83.77-.83,1.34v24.75c-.66-.52-1.35-.99-2.05-1.41-1.79-1.05-3.89-1.58-6.24-1.58-3.35,0-6.54.88-9.48,2.61-2.87,1.69-5.42,3.98-7.56,6.8-2.12,2.79-3.82,6-5.05,9.56-1.24,3.56-1.86,7.28-1.86,11.07s.49,7.45,1.46,10.87c.98,3.43,2.34,6.49,4.06,9.09,1.74,2.64,3.81,4.77,6.16,6.34,2.43,1.63,5.09,2.45,7.91,2.45,1.3,0,2.65-.16,4.02-.48,1.36-.31,2.71-.78,4.02-1.39,1.29-.6,2.55-1.32,3.77-2.14.29-.19.57-.39.85-.6v3.11c0,.83.67,1.5,1.5,1.5h8.44c.83,0,1.5-.67,1.5-1.5V35.8c0-.83-.67-1.5-1.5-1.5Zm-19.12,33.23c1.07,0,2.1.28,3.15.85,1.09.59,2.09,1.43,2.98,2.51.9,1.09,1.64,2.44,2.21,4.01.56,1.57.85,3.34.85,5.26v25.87c-.41.52-.88,1.03-1.39,1.51-.65.6-1.35,1.13-2.07,1.59-.71.44-1.46.79-2.23,1.05-.73.24-1.47.36-2.18.36-1.55,0-2.97-.52-4.36-1.59-1.47-1.14-2.78-2.74-3.89-4.75-1.15-2.08-2.07-4.56-2.74-7.38-.67-2.84-1.01-5.94-1.01-9.21,0-3.03.31-5.84.92-8.35.6-2.49,1.43-4.65,2.45-6.44.98-1.71,2.14-3.05,3.43-3.97,1.23-.88,2.51-1.3,3.89-1.3Z"/>
      <path class="cls-2" d="m382.31,66.17c-1.17-1.68-2.57-3.04-4.16-4.04-1.66-1.05-3.45-1.58-5.32-1.58s-3.63.34-5.46,1c-1.78.64-3.5,1.52-5.1,2.6-1.61,1.08-3.09,2.36-4.4,3.81-.48.53-.92,1.08-1.33,1.64-.22-.52-.48-1.02-.76-1.51-.87-1.49-1.91-2.81-3.11-3.92-1.21-1.13-2.57-2.02-4.04-2.65-1.5-.65-2.99-.97-4.44-.97s-3.05.34-4.7,1.02c-1.56.64-3.13,1.52-4.67,2.59-1.52,1.06-3,2.31-4.42,3.71-.38.38-.76.77-1.12,1.16v-5.87c0-.83-.67-1.5-1.5-1.5h-8.48c-.83,0-1.5.67-1.5,1.5v53.5c0,.83.67,1.5,1.5,1.5h8.48c.83,0,1.5-.67,1.5-1.5v-39.27c.55-.79,1.2-1.56,1.94-2.28.86-.84,1.81-1.59,2.82-2.24,1.01-.64,2.05-1.15,3.1-1.52.99-.35,1.94-.53,2.83-.53.75,0,1.46.21,2.16.65.76.47,1.44,1.14,2.02,1.98.61.89,1.12,1.94,1.49,3.12.37,1.18.56,2.46.56,3.82v36.27c0,.83.67,1.5,1.5,1.5h8.48c.83,0,1.5-.67,1.5-1.5v-39.36c.44-.8,1.02-1.56,1.72-2.28.83-.84,1.75-1.59,2.74-2.22.98-.63,2.03-1.12,3.12-1.47,1.07-.34,2.11-.51,3.1-.51.75,0,1.44.21,2.12.64.75.48,1.42,1.15,2.01,1.99.61.88,1.1,1.93,1.46,3.1.36,1.18.54,2.47.54,3.84v36.27c0,.83.67,1.5,1.5,1.5h8.53c.83,0,1.5-.67,1.5-1.5v-37.79c0-2.44-.34-4.78-1-6.95-.67-2.17-1.59-4.1-2.73-5.75Z"/>
      <path class="cls-2" d="m422.95,64.9c-1.36-1.39-3.14-2.48-5.29-3.24-2.09-.74-4.66-1.11-7.62-1.11-2.45,0-4.82.35-7.05,1.03-2.24.69-4.23,1.65-5.93,2.84-1.74,1.23-3.15,2.72-4.17,4.44-1.06,1.77-1.6,3.7-1.6,5.72s.51,3.9,1.51,5.34c1.1,1.59,2.64,2.43,4.44,2.43,1.16,0,2.16-.29,2.96-.87.76-.54,1.35-1.27,1.77-2.16.37-.8.64-1.71.78-2.71.13-.93.2-1.91.2-2.91,0-.91.09-1.81.25-2.67.15-.75.43-1.44.82-2.03.38-.56.89-1,1.58-1.35.69-.36,1.64-.54,2.83-.54,1.06,0,2.02.18,2.84.55.77.34,1.41.9,1.98,1.71.61.87,1.09,2.06,1.44,3.53.36,1.54.55,3.49.55,5.78v2.25c-1.59.53-3.21,1.07-4.84,1.63-2.04.7-4.07,1.52-6.01,2.44-1.97.93-3.84,1.99-5.57,3.16-1.77,1.2-3.35,2.6-4.7,4.16-1.37,1.58-2.47,3.39-3.26,5.37-.8,2.01-1.21,4.28-1.21,6.77,0,2.02.28,3.94.84,5.72.57,1.81,1.39,3.4,2.43,4.73,1.07,1.36,2.4,2.45,3.95,3.23,1.56.79,3.33,1.19,5.24,1.19s3.78-.3,5.32-.89c1.49-.57,2.87-1.32,4.1-2.21,1.19-.87,2.31-1.84,3.33-2.89.12-.13.25-.26.38-.39v3.71c0,.83.67,1.5,1.5,1.5h8.53c.83,0,1.5-.67,1.5-1.5v-40.37c0-2.29-.29-4.4-.86-6.29-.6-1.98-1.6-3.7-2.96-5.1Zm-14.15,44.55c-.69.25-1.44.38-2.23.38-.62,0-1.21-.18-1.8-.56-.67-.42-1.27-1.01-1.8-1.73-.55-.75-1-1.65-1.34-2.67-.34-1.01-.51-2.09-.51-3.22,0-1.59.46-3.05,1.39-4.48,1-1.52,2.3-2.94,3.86-4.2,1.61-1.3,3.39-2.48,5.3-3.51,1.21-.65,2.4-1.23,3.56-1.75v17.08c-.67.62-1.33,1.22-1.98,1.79-.75.67-1.51,1.25-2.26,1.74-.72.46-1.46.84-2.2,1.11Z"/>
      <path class="cls-2" d="m476.35,77.08c-.83-3.18-2.03-6.02-3.56-8.42-1.56-2.46-3.49-4.44-5.73-5.88-2.3-1.48-4.89-2.23-7.7-2.23-2.06,0-3.99.43-5.72,1.26-1.66.8-3.2,1.85-4.58,3.11-1.35,1.23-2.59,2.61-3.69,4.12-.04.06-.08.12-.13.17v-6.05c0-.83-.67-1.5-1.5-1.5h-8.48c-.83,0-1.5.67-1.5,1.5v76.05c0,.83.67,1.5,1.5,1.5h8.48c.83,0,1.5-.67,1.5-1.5v-22.47c.11.07.23.14.34.2.94.56,1.93,1.01,2.92,1.36.99.34,2.04.6,3.14.77,1.09.17,2.28.25,3.53.25,3.48,0,6.66-.84,9.46-2.49,2.76-1.63,5.14-3.94,7.07-6.85,1.9-2.86,3.37-6.28,4.37-10.15,1-3.84,1.5-8.07,1.5-12.59,0-3.59-.42-7.01-1.24-10.16Zm-26.6-3.99c.89-.71,1.84-1.28,2.83-1.69.94-.39,1.94-.59,2.99-.59,1.32,0,2.5.38,3.61,1.16,1.15.81,2.17,2.09,3.04,3.81.92,1.82,1.65,4.16,2.19,6.96.54,2.84.82,6.23.82,10.06,0,3-.29,5.77-.87,8.24-.57,2.45-1.35,4.55-2.31,6.26-.92,1.64-2,2.91-3.23,3.8-1.15.83-2.34,1.24-3.62,1.24-1.47,0-2.83-.26-4.02-.78-1.2-.52-2.25-1.25-3.13-2.16-.88-.91-1.57-1.99-2.06-3.21-.49-1.22-.74-2.55-.74-3.95v-23.84c.59-.97,1.25-1.9,1.96-2.78.77-.95,1.63-1.8,2.54-2.53Z"/>
      <path class="cls-2" d="m125.14,143.31c20.29-2.24,93.1-2.1,179.82-2.1s159.52-.14,179.82,2.1c.11-.15.18-.3.18-.45,0-5.71-80.59-8.55-180-8.55s-180,2.83-180,8.55c0,.15.07.3.18.45Z"/>
      <path class="cls-2" d="m34.74,40.58c-5.61,4.91-10.52,9.58-13.95,13.54C1.77,76.09-.37,95.9.05,143.68c5.73-.22,11.81-.41,18.18-.56.35,0,.63-.3.61-.65-1-20.03-3.12-44.02,2.32-61.46,1.93-6.17,8.11-12.96,16.1-19.75-.4-7.01-1.15-13.97-2.52-20.67Z"/>
      <path class="cls-2" d="m93.97,11.26c-.48-7.74-4.59-14.29-8.74-9.79,0,0-2.92,2.06-7.57,5.44,5.1.69,10.91,2.05,16.3,4.35Z"/>
      <path class="cls-2" d="m21.17,88.74c-2.8-8.99-3.6-19.71-3.57-30.74h0c-6.6,8.43-10.8,16.81-13.44,26.87,3.04,11.6,8.16,20.96,16.65,30.75,3.67,4.23,9.03,9.29,15.13,14.57,1-7.03,1.45-14.25,1.65-21.44-8.14-6.88-14.46-13.76-16.41-20.02Z"/>
      <path class="cls-2" d="m106.57,99.98c-3.16-3.59-7.37-6.31-11.92-8.34-2.47-1.1-2.47-4.61,0-5.71,4.56-2.03,8.77-4.75,11.92-8.34,7.69-7.79,9.87-20.11,9.36-28.85.52-8.74-1.66-21.06-9.36-28.85-7.22-8.21-19.96-11.89-29.74-13.09-9.77-2.29-22.87-1.69-30.07,6.64-.93.93-1.77,1.97-2.54,3.1,0,0,0,0,0-.01-2.46-5.11-6.61-9.68-15.85-10.85-1.58-.2-1.39,9.87-1.21,14.03.04.99.34,2.56.64,2.95,3.91,5.17,4.97,9.06,6.46,15.6,0,0,0,0,0,0,3.7,16.2,3.49,34.07,3.49,50.57,0,16.51.18,34.36-3.49,50.58-.21.93-.41,1.81-.62,2.66-.1.4.2.78.61.77,3.8-.05,7.68-.08,11.62-.09.15,0,.31,0,.46,0,1.26,0,2.53,0,3.8,0,.56,0,1.11,0,1.68,0,.73,0,1.46,0,2.19,0-.02-4.34-.02-10.85-.02-16.95,0-14.53,0-21.8,5.03-25.67,8.32-6.4,25.39-3.78,33.29,4.69,5.21,5.58,5.21,12.4,5.21,20.98,0,6.49,0,12.84-.02,17.07,0,.34.28.63.62.63,5.11.01,14.59.4,17.19.51.36.01.65-.27.65-.63v-9.59c.09-1.73.09-3.4,0-4.95.52-8.74-1.66-21.06-9.36-28.85Zm-47.58-22.52c-5.03-3.87-5.03-11.14-5.03-25.67,0-14.53,0-21.8,5.03-25.67,8.32-6.4,25.39-3.78,33.29,4.69,5.21,5.58,5.21,12.4,5.21,20.98s0,15.4-5.21,20.98c-7.9,8.47-24.97,11.09-33.29,4.69Z"/>
      <path class="cls-2" d="m3.05,78.2c3.11-9.01,7.74-16.88,14.6-24.99,0,0,0,0,0,0,.37-17.4,2.34-35.04,1.31-47.34-.16-1.95-18.67.74-18.71,3.92C-.22,41.18-.33,62.06,2.7,78.33c0,0,.27.11.36-.13Z"/>
      <path class="cls-2" d="m84.79,141.89c-9.03-5.51-20.68-13.63-26.34-17.47,0,.88,0,1.8,0,2.76,0,3.56-.11,10.48-.12,14.93,0,0,0,0,0,0l27.08,1.13c.59-.2.31-.79-.62-1.36Z"/>
      <path class="cls-2" d="m81.36,29.48c-3.03-1.17-6.42-1.85-9.71-1.85-3.95,0-7.37.96-9.64,2.71-2.81,2.16-3.4,6.27-3.52,15.04l22.88-15.9Z"/>
    </g>
  </g>
</svg>